<?xml version="1.0" standalone="no"?>
<!DOCTYPE svg PUBLIC "-//W3C//DTD SVG 20010904//EN"
 "http://www.w3.org/TR/2001/REC-SVG-20010904/DTD/svg10.dtd">
<svg version="1.0" xmlns="http://www.w3.org/2000/svg"
 width="1024.000000pt" height="1024.000000pt" viewBox="0 0 1024.000000 1024.000000"
 preserveAspectRatio="xMidYMid meet">

<g transform="translate(0.000000,1024.000000) scale(0.100000,-0.100000)"
fill="#000000" stroke="none">
<path d="M3621 10140 c-33 -19 -91 -93 -91 -117 0 -7 -8 -17 -17 -22 -16 -9
-14 -10 8 -11 21 0 30 7 40 32 15 36 95 118 116 118 7 0 13 5 13 10 0 15 -31
11 -69 -10z"/>
<path d="M3715 10048 c-74 -17 -145 -40 -150 -47 -2 -4 19 -2 48 6 57 15 208
16 277 3 43 -9 43 -9 -15 -6 -33 2 -80 1 -105 -4 l-45 -7 50 -2 c55 -1 234
-39 249 -52 5 -5 -6 -6 -25 -4 -98 12 -133 14 -111 5 12 -5 22 -11 22 -12 0
-15 -390 1 -435 18 -15 6 -16 4 -6 -13 9 -18 7 -24 -17 -39 -15 -10 -49 -39
-75 -64 -42 -41 -46 -48 -32 -60 13 -11 20 -8 50 21 40 40 55 52 75 63 8 4
-30 -35 -85 -87 -55 -52 -104 -92 -109 -89 -5 3 -6 0 -1 -7 8 -14 -53 -83 -67
-75 -4 3 -8 -2 -8 -11 0 -9 -4 -13 -10 -10 -6 3 -7 -1 -4 -9 4 -10 1 -16 -9
-16 -8 0 -20 -7 -27 -14 -6 -8 -28 -20 -48 -27 -20 -7 -43 -19 -50 -28 -22
-27 -80 -154 -87 -191 -8 -45 19 -203 40 -232 10 -15 15 -45 15 -89 0 -47 4
-70 15 -79 13 -11 15 -8 15 21 0 19 4 41 10 49 7 12 10 11 16 -5 31 -86 54
-134 107 -228 34 -59 79 -126 101 -149 36 -37 40 -39 47 -22 5 13 8 14 8 4 1
-8 15 -40 33 -70 l31 -55 9 30 c11 38 1 195 -17 257 -23 80 -29 87 -75 81 -35
-5 -48 0 -96 31 -67 45 -114 114 -114 168 0 55 28 117 56 124 37 10 47 -4 24
-36 -29 -41 -26 -53 11 -35 28 15 33 15 56 0 20 -14 24 -22 19 -46 -3 -16 -2
-29 3 -29 8 0 32 45 43 80 3 8 26 -28 53 -83 42 -87 73 -127 97 -127 5 0 5 42
2 93 -8 114 8 171 65 234 35 38 41 42 74 36 20 -3 50 0 68 6 48 16 46 7 -3
-18 -24 -12 -34 -20 -23 -16 20 5 20 5 1 -10 -11 -8 -16 -15 -12 -15 5 0 3 -7
-4 -15 -20 -24 -1 -39 24 -17 11 11 30 22 41 26 18 5 20 1 20 -38 0 -69 43
-104 95 -76 10 6 34 35 52 65 32 54 33 55 80 55 27 0 48 -4 48 -10 0 -5 6 -10
13 -10 8 0 19 -18 26 -40 13 -44 37 -73 53 -64 6 4 17 -1 24 -11 8 -11 26 -18
43 -18 17 0 28 -4 25 -9 -8 -13 12 -9 24 5 6 6 15 28 20 47 l10 35 1 -37 c1
-21 5 -38 9 -38 4 0 25 32 46 71 34 62 39 68 51 53 11 -16 14 -16 37 7 26 26
43 107 43 209 0 37 3 44 18 42 28 -5 20 17 -28 71 -37 42 -44 58 -43 88 1 19
-2 41 -6 47 -5 8 3 12 23 12 18 0 40 9 52 21 25 25 19 35 -61 89 -30 21 -67
50 -81 64 -15 13 -29 23 -32 20 -2 -2 -10 3 -18 13 -12 15 -12 16 1 9 8 -4
-13 19 -47 52 -52 51 -58 61 -42 65 11 3 19 14 19 26 0 19 -5 20 -47 16 -45
-4 -45 -4 -10 4 43 9 62 24 53 40 -5 7 -15 7 -33 0 -27 -10 -37 -10 -248 15
-71 9 -132 15 -135 15 -3 -1 -23 -5 -45 -11z m273 -55 c-10 -2 -26 -2 -35 0
-10 3 -2 5 17 5 19 0 27 -2 18 -5z m157 -96 c51 -25 98 -58 92 -64 -5 -4 -79
32 -117 57 -8 5 -31 16 -50 25 l-35 15 35 -6 c19 -4 53 -15 75 -27z m-423 -8
c76 -21 96 -34 61 -41 -25 -5 -111 11 -153 28 -27 12 -32 17 -20 24 20 13 23
13 112 -11z m14 -87 c-5 -4 -66 26 -66 33 0 3 16 -3 35 -12 19 -9 33 -18 31
-21z m-155 -50 c-17 -56 -76 -168 -111 -207 -20 -22 -57 -66 -84 -98 -49 -59
-161 -141 -178 -131 -5 3 -17 -1 -26 -9 -9 -8 -28 -18 -42 -22 -43 -12 -88
-53 -95 -85 -4 -16 -10 -30 -15 -30 -16 0 8 59 42 103 28 37 36 42 51 33 26
-15 53 21 123 162 31 63 58 111 61 109 2 -3 0 -13 -5 -24 -5 -10 -23 -46 -41
-81 -18 -37 -29 -71 -26 -82 3 -10 -1 -25 -10 -34 -9 -9 -12 -16 -7 -16 5 0
15 7 22 15 7 8 21 15 31 15 50 0 147 122 226 288 32 64 61 120 67 124 18 12
25 -1 17 -30z m229 28 c8 -5 11 -10 5 -10 -5 0 -17 5 -25 10 -8 5 -10 10 -5
10 6 0 17 -5 25 -10z m-96 -15 c3 -8 9 -14 13 -14 18 4 45 -15 59 -43 9 -16
14 -32 11 -34 -8 -8 -37 8 -31 17 3 5 1 9 -5 9 -5 0 -12 -6 -14 -12 -3 -8 -6
-6 -6 5 -1 9 -5 17 -11 17 -5 0 -21 10 -34 21 -19 17 -22 24 -13 35 16 17 24
17 31 -1z m-254 -21 c0 -24 -68 -155 -97 -188 -20 -22 -33 -31 -29 -21 4 11
14 47 21 79 10 44 24 69 52 98 34 35 53 47 53 32z m222 -92 c-3 -41 -36 -158
-52 -182 -13 -20 -12 -12 4 46 8 27 17 67 20 89 12 74 18 96 24 90 3 -3 5 -22
4 -43z m-77 -50 c-19 -33 -35 -66 -35 -72 0 -7 -15 -30 -32 -51 -18 -21 -44
-51 -56 -66 l-24 -28 23 40 c12 22 44 81 72 130 27 50 56 98 65 108 30 34 23
0 -13 -61z m-272 23 c-9 -19 -18 -33 -21 -31 -4 5 26 66 33 66 3 0 -3 -16 -12
-35z m1031 -51 c3 -7 -16 1 -42 18 -68 45 -75 55 -15 23 28 -15 54 -33 57 -41z
m-538 -84 c26 -41 55 -88 66 -103 11 -16 21 -34 22 -40 1 -7 4 -16 8 -22 4 -6
-21 -9 -71 -7 -101 4 -206 -20 -243 -55 -38 -36 -48 -21 -11 16 49 48 143 254
143 314 0 22 1 22 20 -3 11 -14 41 -59 66 -100z m-797 -347 c0 -5 -4 -17 -9
-28 -8 -18 -9 -17 -9 8 -1 15 4 27 9 27 6 0 10 -3 9 -7z"/>
<path d="M3728 9963 c6 -2 18 -2 25 0 6 3 1 5 -13 5 -14 0 -19 -2 -12 -5z"/>
<path d="M3281 9889 c-63 -33 -94 -60 -41 -35 19 9 42 21 51 26 9 5 33 12 53
15 20 4 36 11 36 16 0 17 -45 7 -99 -22z"/>
<path d="M3325 9848 c-77 -51 -160 -141 -205 -223 -23 -42 -40 -79 -37 -82 15
-14 72 46 109 115 27 50 67 102 115 150 40 39 71 72 70 72 -2 0 -25 -14 -52
-32z"/>
<path d="M3104 9788 l-29 -33 33 29 c17 17 32 31 32 33 0 8 -8 1 -36 -29z"/>
<path d="M3132 9750 c-12 -16 -22 -33 -22 -37 0 -4 -16 -26 -35 -48 -54 -62
-125 -206 -124 -252 1 -37 1 -37 9 -9 10 32 51 96 62 96 4 0 19 26 34 58 22
49 90 193 101 215 9 17 -5 5 -25 -23z"/>
<path d="M3330 9760 c0 -5 5 -10 11 -10 5 0 7 5 4 10 -3 6 -8 10 -11 10 -2 0
-4 -4 -4 -10z"/>
<path d="M3042 9714 c-17 -20 -33 -45 -35 -56 -7 -25 -7 -24 36 40 42 61 41
67 -1 16z"/>
<path d="M4070 8885 c-14 -8 -33 -14 -42 -15 -32 0 -28 -18 17 -68 25 -27 45
-53 45 -56 0 -3 -26 -7 -57 -8 l-58 -1 65 -6 c36 -3 73 -4 83 -2 20 4 23 31 3
31 -9 0 -12 8 -8 25 5 30 -6 115 -16 115 -4 -1 -18 -7 -32 -15z"/>
<path d="M4170 8604 c0 -8 5 -12 10 -9 6 3 10 10 10 16 0 5 -4 9 -10 9 -5 0
-10 -7 -10 -16z"/>
<path d="M4132 8554 c-32 -49 -75 -68 -152 -67 -59 0 -105 10 -270 58 -74 22
-148 35 -164 29 -15 -6 -14 -31 1 -58 4 -8 38 -41 74 -75 87 -79 180 -204 229
-305 41 -86 87 -137 146 -162 42 -18 44 -49 4 -76 -16 -11 -19 -18 -10 -18 8
1 24 7 34 15 11 8 23 15 26 15 9 0 35 -71 32 -87 -2 -7 2 -13 8 -13 5 0 10 -7
10 -16 0 -9 21 -85 47 -168 38 -125 47 -167 49 -243 3 -97 -6 -150 -25 -146
-6 2 -11 -7 -11 -19 0 -12 -3 -18 -7 -15 -4 4 -12 -6 -19 -23 -9 -19 -20 -30
-34 -30 -12 0 -20 -7 -20 -16 0 -14 -9 -16 -51 -12 -41 4 -56 11 -73 33 -13
16 -27 26 -32 23 -5 -4 -10 8 -11 24 -1 17 -7 35 -12 42 -5 6 -13 29 -17 51
-4 22 -10 42 -13 45 -4 3 -15 39 -25 80 -10 41 -26 102 -36 135 -10 33 -28 95
-41 137 -12 43 -24 76 -26 74 -2 -2 4 -34 12 -71 46 -197 70 -393 79 -650 4
-109 3 -117 -4 -50 -4 44 -11 124 -14 179 -3 54 -10 124 -15 155 -6 31 -13 85
-16 121 -8 86 -15 120 -25 120 -4 0 -7 7 -6 17 2 9 -5 46 -15 82 -10 36 -19
69 -19 74 0 13 -50 8 -50 -5 0 -9 -4 -8 -11 2 -8 12 -9 9 -5 -12 3 -14 6 -60
7 -101 1 -77 12 -116 24 -86 9 24 55 11 66 -18 11 -31 12 -29 -7 -47 -20 -21
-38 -20 -60 1 -16 16 -16 16 -11 -2 16 -54 28 -345 15 -345 -5 0 -9 15 -9 33
-1 17 -3 46 -5 62 -2 17 -5 71 -8 120 -2 50 -6 97 -9 105 -3 8 -13 56 -22 105
-9 50 -25 123 -35 162 -15 54 -18 82 -11 110 9 37 9 37 11 8 1 -16 4 -24 7
-17 2 6 12 12 21 11 11 0 12 -2 5 -6 -22 -8 -14 -21 9 -15 14 3 19 2 14 -6 -4
-7 -1 -12 9 -12 9 0 13 -5 10 -10 -4 -6 -16 -8 -28 -4 -17 5 -19 3 -11 -6 15
-15 66 -9 72 9 3 8 0 11 -5 8 -6 -4 -8 4 -5 19 4 24 2 26 -19 19 -16 -4 -20
-3 -11 3 8 5 13 12 13 16 -1 3 -1 9 0 14 1 4 2 16 3 27 0 12 7 19 16 17 8 -2
11 0 7 5 -5 4 -12 8 -16 8 -21 0 -71 56 -71 79 0 33 -7 33 -40 -3 -24 -28 -43
-64 -105 -206 l-26 -60 -30 60 c-17 33 -41 74 -54 90 -43 55 -95 110 -95 99 0
-5 15 -26 33 -46 30 -33 38 -46 70 -115 6 -16 18 -33 26 -39 8 -6 12 -20 9
-32 -4 -15 -2 -19 9 -15 12 5 14 1 9 -18 -3 -13 -3 -18 0 -11 3 6 13 12 22 12
15 0 15 -2 2 -10 -8 -5 -10 -10 -4 -10 5 0 15 5 22 12 9 9 12 8 13 -7 0 -18 1
-18 9 3 9 21 30 31 30 13 0 -5 10 -11 23 -15 18 -5 20 -8 7 -16 -13 -8 -13
-10 2 -10 19 0 14 -28 -6 -42 -7 -5 -3 -8 8 -8 12 0 16 -5 12 -15 -3 -10 1
-15 12 -15 13 0 10 -6 -12 -25 -17 -14 -36 -23 -43 -21 -7 3 -13 1 -13 -4 0
-6 7 -10 15 -10 8 0 15 -4 15 -10 0 -5 -9 -10 -19 -10 -11 0 -23 5 -26 10 -10
16 -25 12 -25 -7 0 -14 2 -15 9 -4 6 9 10 9 12 2 2 -6 30 -12 61 -14 32 -2 61
-7 65 -12 5 -4 1 -4 -7 0 -13 7 -13 6 -2 -7 9 -11 12 -49 10 -134 -3 -110 -4
-119 -23 -122 -15 -2 -16 -1 -7 6 20 14 27 88 11 109 -12 14 -12 16 0 8 11 -7
13 -2 8 25 -4 18 -7 39 -7 46 0 11 -20 14 -90 14 -75 0 -90 -3 -90 -16 0 -14
-2 -14 -15 0 -20 19 -175 22 -175 3 0 -7 -4 -6 -10 3 -8 12 -10 12 -10 -5 -1
-19 -1 -19 -14 -2 -17 21 -26 22 -26 1 0 -13 -3 -14 -13 -5 -8 6 -17 8 -20 4
-4 -3 -7 -1 -7 5 0 7 -11 12 -24 12 -21 0 -23 -4 -21 -32 2 -18 4 -35 5 -38 1
-3 2 -26 2 -52 0 -27 4 -50 9 -54 14 -8 11 -24 -5 -24 -8 0 -17 8 -20 18 -4
15 -10 175 -7 209 1 7 22 13 54 16 l52 3 -60 3 c-79 4 -39 18 60 21 39 1 61 5
51 7 -15 4 -16 7 -5 14 11 7 11 9 -3 9 -10 0 -18 -4 -18 -8 0 -5 -7 -9 -17 -9
-13 0 -12 4 6 18 12 10 17 20 11 24 -5 3 -10 2 -10 -3 0 -5 -12 -14 -27 -21
-24 -11 -29 -10 -40 6 -8 10 -28 23 -46 29 -18 6 -30 14 -29 19 2 4 0 11 -5
14 -4 3 -19 30 -33 59 -29 64 -47 81 -21 20 32 -75 35 -84 46 -128 9 -35 -6
-13 -50 70 -47 89 -56 102 -51 70 2 -14 -1 -31 -6 -37 -8 -10 -5 -13 8 -13 12
0 4 -9 -23 -26 -24 -14 -43 -32 -43 -40 0 -8 -4 -14 -10 -14 -5 0 -10 -6 -10
-14 0 -7 -15 -18 -32 -24 -27 -10 -28 -11 -5 -7 15 3 27 1 27 -5 0 -11 -11
-13 -47 -12 -13 1 -23 -3 -23 -8 0 -6 4 -10 9 -10 6 0 9 -9 8 -20 -1 -11 -5
-20 -10 -20 -4 0 -5 -5 -1 -12 5 -8 -2 -9 -27 -5 -19 4 -29 4 -23 -1 5 -4 10
-17 10 -29 0 -22 -10 -30 -19 -15 -2 4 -3 2 -1 -4 1 -7 -8 -27 -21 -45 -21
-31 -22 -36 -8 -51 10 -11 13 -24 8 -35 -8 -17 -8 -17 -12 0 -3 9 -11 17 -19
17 -11 0 -13 -6 -9 -22 6 -16 4 -20 -9 -15 -8 3 -18 2 -21 -3 -3 -5 5 -12 19
-16 22 -5 24 -8 11 -21 -8 -8 -15 -18 -15 -22 0 -4 -12 -12 -27 -18 l-28 -11
26 -1 c22 -1 27 -6 27 -27 0 -14 -3 -22 -7 -16 -3 5 -17 12 -31 16 -19 6 -22
5 -10 -3 13 -10 13 -12 0 -22 -12 -8 -10 -9 8 -4 12 4 22 2 22 -4 0 -15 -39
-24 -54 -12 -13 11 -26 5 -26 -11 0 -5 4 -7 9 -4 5 4 20 2 33 -3 12 -6 18 -10
12 -10 -20 -2 -56 -39 -44 -46 6 -4 9 -13 6 -20 -3 -8 4 -15 17 -18 13 -3 7
-5 -15 -6 -46 -1 -51 -21 -5 -22 l32 -1 -30 -7 c-40 -10 -71 5 -54 25 16 19
11 21 -36 13 -22 -3 -31 -7 -19 -8 25 -1 48 -43 32 -59 -17 -17 -1 -62 23 -62
11 0 17 -4 14 -10 -3 -5 -1 -10 6 -10 7 0 9 -3 5 -7 -3 -4 4 -13 16 -20 23
-12 23 -12 -5 -13 -16 0 -26 -4 -22 -10 3 -5 15 -10 25 -10 23 0 35 -16 19
-26 -8 -4 -9 -3 -5 4 5 8 -2 12 -21 12 -15 0 -40 7 -55 14 -16 8 -28 11 -28 5
0 -5 -4 -9 -10 -9 -5 0 -10 6 -10 14 0 22 -17 28 -41 16 -12 -7 -18 -18 -15
-26 3 -9 -1 -14 -12 -15 -11 0 -12 -2 -4 -6 10 -4 10 -8 2 -19 -9 -10 -6 -19
15 -38 15 -14 31 -23 36 -21 4 3 10 -4 14 -15 4 -13 15 -20 30 -20 18 0 26 -7
31 -26 4 -15 12 -23 19 -20 14 5 49 -27 39 -36 -3 -4 -18 -2 -34 2 -16 4 -31
6 -34 3 -3 -3 -22 2 -42 12 -20 9 -54 20 -75 22 -35 5 -39 3 -45 -23 -9 -37
10 -50 144 -97 60 -22 39 -36 -50 -34 -46 1 -84 -2 -86 -8 -1 -5 42 -17 98
-26 55 -10 138 -27 185 -38 47 -12 105 -24 130 -28 l45 -6 0 39 c0 32 45 174
55 174 2 0 3 -10 2 -22 0 -13 7 -70 16 -128 9 -58 26 -204 37 -325 12 -121 23
-222 26 -226 6 -10 168 -18 494 -25 289 -6 306 -7 323 -26 9 -11 17 -29 17
-39 0 -20 -280 -1291 -301 -1364 -19 -69 -30 -75 -138 -75 -145 0 -414 20
-428 32 -10 8 -9 13 2 25 15 15 19 50 9 76 -4 12 -10 10 -29 -9 -53 -53 -118
-18 -179 96 l-28 54 -20 -24 c-17 -21 -19 -33 -13 -80 4 -30 8 -74 8 -97 1
-24 4 -43 8 -43 3 0 4 -12 1 -26 l-5 -27 -14 27 c-15 29 -31 34 -39 11 -10
-25 -36 -17 -75 21 -58 56 -65 42 -44 -91 l6 -40 -28 52 c-38 69 -69 110 -78
101 -5 -5 -3 -20 4 -34 6 -15 10 -28 8 -31 -3 -2 -28 17 -58 42 -29 24 -53 44
-54 42 -1 -1 3 -32 9 -68 13 -80 29 -101 70 -97 28 3 31 6 28 36 -4 41 4 41
22 -2 22 -52 65 -77 133 -77 32 1 69 0 83 0 36 -1 104 18 108 31 20 60 123
103 174 72 l28 -16 1 -236 c1 -264 5 -387 14 -475 4 -33 8 -154 11 -270 2
-115 6 -239 8 -275 3 -37 1 -67 -5 -71 -13 -8 -14 -34 -5 -82 5 -29 4 -37 -4
-32 -9 6 -9 2 -1 -13 13 -25 14 -43 1 -22 -15 24 -25 2 -28 -63 -4 -98 -18
-188 -36 -236 -9 -24 -18 -64 -21 -90 -2 -25 -9 -73 -16 -106 -25 -129 -39
-265 -26 -265 5 0 5 -6 -1 -13 -12 -14 -14 -428 -3 -513 4 -28 4 -62 0 -75 -3
-14 -2 -52 3 -84 5 -33 10 -75 11 -92 2 -18 8 -38 15 -45 16 -16 15 -38 -2
-38 -8 0 -22 8 -32 17 -16 16 -16 16 -10 -5 3 -12 8 -31 12 -41 3 -13 -3 -28
-16 -41 -15 -15 -20 -29 -16 -46 4 -14 2 -24 -4 -24 -20 0 -9 -35 21 -66 30
-31 31 -33 8 -28 -19 5 -21 4 -9 -5 10 -7 11 -11 2 -11 -10 0 -11 -30 -7 -137
3 -76 10 -140 15 -141 6 -2 7 -9 3 -15 -4 -7 0 -8 12 -3 14 5 16 4 7 -7 -7 -8
-9 -17 -5 -20 3 -4 1 -7 -7 -7 -9 0 -9 -4 -2 -13 10 -11 12 -80 11 -297 -1
-109 -2 -99 10 -144 10 -41 41 -83 41 -56 0 7 3 11 6 8 3 -4 1 -16 -5 -27 -10
-17 -9 -20 4 -15 8 4 27 -1 41 -10 32 -21 138 -20 156 2 10 12 9 14 -7 11 -13
-3 -31 8 -52 30 -33 35 -42 61 -23 61 6 0 10 -4 10 -10 0 -5 5 -10 10 -10 15
0 12 36 -3 52 -15 14 -37 100 -42 163 -2 22 -8 53 -14 68 -26 67 -6 45 37 -43
50 -99 114 -204 133 -215 6 -4 8 -14 4 -23 -3 -9 -3 -13 1 -10 3 4 18 -4 32
-18 28 -25 29 -26 77 -28 17 0 33 -8 37 -16 6 -13 7 -13 7 0 1 15 85 41 142
44 11 1 24 8 30 16 8 11 12 12 16 3 7 -18 23 -16 23 2 0 10 10 15 33 14 l32
-1 -30 -8 c-29 -7 -29 -8 -4 -9 34 -1 75 -34 83 -66 5 -21 12 -25 41 -25 28 0
35 4 35 19 0 47 -27 81 -63 81 -11 0 -67 30 -67 36 0 4 12 3 26 0 19 -5 25 -3
22 6 -16 46 -251 14 -348 -47 -34 -21 -44 -24 -62 -14 l-21 11 24 19 c43 34
182 79 292 95 45 6 40 21 -9 30 -39 7 -151 -25 -194 -56 -15 -10 -50 -30 -80
-45 -51 -26 -54 -26 -67 -9 -15 20 -9 25 116 88 41 21 80 44 88 52 9 8 34 14
64 14 27 0 49 5 49 10 0 6 -7 10 -15 10 -8 0 -15 5 -15 10 0 13 -38 13 -119
-2 -87 -15 -96 -25 -31 -34 50 -7 52 -8 29 -20 -14 -7 -54 -20 -89 -29 -36 -9
-73 -24 -83 -33 -18 -16 -20 -15 -33 3 -22 30 -17 39 32 59 50 21 74 40 74 62
0 22 -42 17 -103 -14 -54 -27 -57 -28 -63 -10 -12 38 58 88 121 88 19 0 35 5
35 10 0 6 4 10 10 10 5 0 7 -6 4 -14 -8 -22 17 -25 105 -11 56 9 91 11 108 4
14 -5 28 -8 30 -6 7 8 -20 56 -35 62 -12 4 -13 3 -2 -10 18 -21 8 -28 -24 -15
-15 5 -87 8 -171 6 -125 -4 -150 -7 -178 -25 l-34 -21 -13 24 c-11 22 -9 27
21 55 19 17 48 33 66 37 17 3 34 12 37 20 9 23 -47 17 -100 -11 -26 -14 -49
-24 -50 -22 -2 2 -5 14 -6 27 -3 21 4 26 69 47 57 17 79 20 99 12 19 -6 51 -6
105 2 65 9 83 9 107 -4 28 -13 29 -13 24 5 -8 32 -49 41 -142 32 -47 -4 -101
-7 -120 -6 -19 1 -66 -8 -104 -19 -56 -17 -70 -18 -77 -7 -15 22 -5 31 62 53
l64 22 -3 59 c-3 81 -20 149 -44 179 -16 21 -28 25 -73 25 -30 0 -57 -4 -60
-10 -3 -5 -11 -10 -18 -10 -7 0 -6 5 3 14 12 11 62 16 214 22 l198 7 -6 -29
c-3 -16 -8 -69 -11 -118 -5 -74 -4 -91 11 -107 16 -18 16 -19 -7 -28 -20 -7
-14 -9 34 -12 33 -2 57 0 58 6 4 71 -4 390 -11 427 -8 39 -6 57 6 86 13 29 14
57 9 132 -6 92 1 210 30 455 8 66 21 197 30 290 9 94 20 203 25 243 6 40 10
93 10 118 0 24 11 72 25 106 14 34 25 67 25 74 0 7 11 34 25 61 28 53 33 88
60 401 9 95 22 215 30 265 8 51 29 180 46 287 61 388 145 828 148 774 1 -11
12 -31 26 -44 35 -33 51 -100 64 -259 6 -74 27 -225 45 -335 61 -353 86 -520
86 -562 0 -23 7 -61 15 -84 13 -38 16 -78 14 -235 0 -22 0 -73 0 -112 1 -40
-3 -81 -8 -90 -13 -25 -39 -179 -52 -308 -16 -160 -4 -410 36 -705 23 -171 23
-172 12 -210 -6 -19 -11 -39 -12 -45 -3 -24 19 -83 41 -112 l25 -33 -40 0
c-36 0 -41 -3 -41 -23 0 -13 11 -34 25 -47 14 -13 25 -28 25 -32 0 -5 7 -16
15 -24 21 -21 19 -31 -7 -30 -23 1 -23 0 -20 -114 1 -63 2 -128 3 -144 0 -16
-5 -32 -12 -37 -6 -4 -9 -14 -6 -23 7 -17 -6 -85 -28 -146 -7 -19 -19 -76 -26
-127 -12 -84 -11 -94 5 -111 23 -26 118 -56 257 -82 63 -12 204 -39 314 -60
110 -21 227 -44 260 -49 196 -34 513 -30 636 8 83 26 96 39 76 78 -31 59 -95
93 -179 94 -29 0 -75 4 -101 8 -26 4 -50 4 -53 -1 -3 -5 -14 2 -24 14 -15 19
-20 20 -34 9 -9 -8 -19 -11 -22 -9 -8 9 47 48 67 48 22 0 25 15 5 23 -17 7
-75 -30 -127 -79 -30 -29 -40 -33 -67 -28 -18 4 -32 10 -32 14 0 4 16 22 35
39 32 28 47 61 27 61 -11 0 -52 -28 -83 -57 -25 -23 -29 -24 -54 -10 l-28 14
41 33 c22 18 43 39 47 48 10 27 -67 7 -93 -25 -12 -15 -20 -20 -16 -11 8 22
-4 23 -27 2 -14 -12 -22 -13 -38 -4 -28 15 -26 20 19 55 32 25 60 62 60 81 0
7 -78 -35 -85 -46 -3 -5 -11 -10 -17 -10 -6 0 -5 7 3 17 8 9 -3 5 -25 -9 -38
-26 -66 -27 -66 -3 0 7 16 23 35 36 19 13 35 28 35 32 0 5 9 6 19 2 21 -6 101
29 101 45 0 5 -10 14 -21 21 -27 14 -99 -4 -99 -25 0 -9 -7 -12 -17 -10 -10 3
-40 -9 -67 -26 -38 -24 -51 -28 -57 -18 -5 7 -2 19 7 29 8 8 11 19 7 23 -4 4
1 4 11 0 15 -6 17 -4 11 7 -4 8 -5 11 0 7 4 -4 24 1 44 11 20 11 56 24 80 31
l43 11 -33 30 c-18 16 -37 29 -43 29 -5 0 -50 -22 -98 -50 -95 -54 -111 -59
-106 -33 3 19 112 89 167 109 33 11 33 12 13 23 -19 10 -33 5 -99 -30 -43 -23
-88 -48 -100 -56 -19 -13 -23 -12 -33 7 -6 12 -10 23 -8 25 2 2 44 24 94 49
72 36 93 51 98 71 4 14 11 23 17 19 7 -4 8 7 5 30 -3 20 -8 53 -11 73 -14 105
-29 153 -47 153 -22 0 -23 21 -2 62 14 28 15 41 5 102 -7 39 -17 89 -23 111
-14 51 -13 295 1 450 6 66 13 221 15 345 4 193 8 241 30 340 14 64 35 138 47
165 27 61 27 66 11 845 -11 583 -27 880 -56 1070 -8 52 -20 145 -27 207 l-12
112 36 40 c21 23 37 47 37 54 0 8 17 12 50 13 57 1 52 9 75 -125 8 -52 26
-126 39 -165 46 -136 59 -315 25 -348 -37 -36 -74 -58 -96 -58 -28 0 -40 -24
-23 -45 27 -33 97 -7 173 63 26 25 27 25 27 5 0 -11 -7 -26 -15 -33 -8 -7 -15
-18 -15 -25 0 -19 -37 -47 -64 -49 -39 -2 -40 -24 -3 -40 30 -13 33 -12 57 14
14 15 32 38 40 50 8 13 30 41 48 63 18 22 40 53 48 68 15 30 47 231 45 288 -1
46 -20 101 -35 101 -14 0 -56 -123 -56 -165 l0 -28 -27 31 c-16 17 -39 32 -53
34 -21 2 -27 11 -37 53 -6 28 -12 102 -12 167 l-1 116 31 26 c17 14 43 29 57
33 53 12 70 31 77 84 6 39 3 58 -15 94 -15 30 -28 45 -41 45 -13 0 -19 7 -20
23 0 21 -1 21 -9 2 l-9 -20 0 20 c-1 15 -3 17 -10 6 -15 -24 -48 70 -61 170
-6 51 -15 98 -19 104 -5 5 -9 17 -10 25 -6 61 -10 75 -20 72 -7 -1 -11 18 -11
55 0 32 -4 64 -9 71 -4 7 -5 32 -1 55 6 30 4 47 -7 64 -10 15 -14 40 -11 76 2
37 -1 59 -10 67 -9 8 -12 23 -8 41 3 15 2 31 -3 33 -5 3 -6 17 -3 31 3 18 0
25 -11 25 -9 0 -19 5 -23 12 -5 7 -2 9 7 4 8 -4 6 -1 -4 7 -16 13 -16 16 -1
27 10 9 13 21 8 34 -9 28 -17 109 -43 421 -12 143 -25 296 -31 340 -5 44 -12
134 -15 200 -10 190 -33 335 -54 335 -5 0 -13 15 -19 33 -10 30 -11 31 -17 10
-5 -15 -16 -23 -31 -24 -36 -2 -42 -3 -50 -11 -4 -4 -13 0 -20 10 -10 12 -13
13 -14 3 0 -19 -26 3 -33 28 -3 14 0 18 17 15 12 -3 15 -2 6 2 -24 11 -52 43
-45 54 4 6 -1 7 -11 3 -12 -4 -15 -3 -10 5 4 7 4 12 -1 12 -12 0 -49 95 -67
171 -3 15 -14 37 -25 50 -18 23 -20 23 -38 6 -11 -9 -22 -15 -25 -12 -3 4 -3
-14 -1 -40 4 -30 2 -45 -6 -45 -7 0 -9 -10 -5 -27 3 -16 2 -23 -3 -16 -5 7 -9
-22 -11 -69 -2 -63 2 -95 22 -156 45 -138 78 -272 73 -292 -3 -11 -1 -22 3
-25 9 -6 25 -124 18 -131 -9 -8 -40 175 -32 187 4 7 3 9 -2 6 -6 -3 -15 19
-22 48 -7 30 -26 96 -43 147 -80 248 -94 334 -59 378 11 14 20 31 20 38 0 21
16 13 28 -15 10 -25 11 -25 5 -3 -4 14 -7 42 -9 62 -4 66 -70 137 -186 197
-78 41 -92 41 -84 -1 3 -13 7 -43 11 -68 6 -43 5 -44 -10 -23 -19 27 -22 205
-5 259 10 30 15 34 48 34 63 0 115 20 152 59 40 43 70 82 70 92 0 22 -18 13
-38 -17z m-462 -639 c12 -15 7 -17 -62 -28 -23 -3 -25 -2 -15 14 6 10 14 16
18 13 4 -2 10 0 14 6 9 14 31 12 45 -5z m20 -275 c0 -5 -5 -10 -11 -10 -5 0
-7 5 -4 10 3 6 8 10 11 10 2 0 4 -4 4 -10z m570 -21 c0 -5 5 -7 10 -4 6 3 10
-3 10 -15 0 -12 3 -19 8 -17 4 3 8 -6 9 -20 1 -17 -2 -21 -7 -13 -4 7 -13 9
-19 6 -6 -4 -11 -4 -10 1 4 22 -3 31 -21 26 -11 -3 -20 0 -20 6 0 6 5 11 10
11 6 0 10 7 10 15 0 8 5 15 10 15 6 0 10 -5 10 -11z m-1159 -69 c5 0 9 -4 9
-8 0 -4 -9 -8 -19 -8 -11 0 -18 3 -15 7 2 4 1 9 -3 12 -5 2 -2 2 5 0 8 -1 18
-3 23 -3z m482 -37 c-7 -2 -19 -2 -25 0 -7 3 -2 5 12 5 14 0 19 -2 13 -5z
m967 -38 c0 -6 -38 -9 -100 -7 -55 2 -100 6 -100 10 0 4 45 7 100 7 60 0 100
-4 100 -10z m-10 -25 c10 -7 -14 -9 -75 -8 -78 1 -83 2 -40 8 77 11 99 11 115
0z m-62 -27 c-45 -3 -68 -8 -68 -16 0 -13 33 -130 45 -159 4 -10 3 -18 -3 -18
-7 0 -62 168 -62 193 0 4 35 6 78 5 l77 -2 -67 -3z m79 -15 c-3 -8 -6 -5 -6 6
-1 11 2 17 5 13 3 -3 4 -12 1 -19z m-1277 -16 c0 -15 -2 -15 -10 -2 -13 20
-13 33 0 25 6 -3 10 -14 10 -23z m34 2 c3 -8 2 -12 -4 -9 -6 3 -10 10 -10 16
0 14 7 11 14 -7z m-544 -4 c0 -5 -4 -10 -9 -10 -6 0 -13 5 -16 10 -3 6 1 10 9
10 9 0 16 -4 16 -10z m-33 -62 c-3 -7 -5 -2 -5 12 0 14 2 19 5 13 2 -7 2 -19
0 -25z m1807 -63 c-3 -7 0 -23 6 -35 6 -12 9 -25 5 -28 -9 -9 -25 20 -17 33 3
5 -1 5 -9 -2 -12 -10 -15 -7 -17 18 -1 17 0 35 4 40 9 14 34 -9 28 -26z
m-1154 -6 c17 -30 5 -49 -29 -49 -24 0 -32 5 -37 24 -3 14 -3 30 1 35 11 19
54 12 65 -10z m-176 -14 c4 -10 -1 -15 -15 -15 -17 0 -18 2 -7 15 16 18 15 18
22 0z m-25 -31 c3 -4 -5 -4 -19 -1 -14 4 -31 7 -37 7 -7 0 -13 4 -13 9 0 10
58 -3 69 -15z m68 10 c-3 -3 -12 -4 -19 -1 -8 3 -5 6 6 6 11 1 17 -2 13 -5z
m-16 -22 c-7 -2 -18 1 -23 6 -8 8 -4 9 13 5 13 -4 18 -8 10 -11z m-79 -57 c2
-19 0 -35 -4 -35 -4 0 -8 16 -8 35 0 19 2 35 4 35 2 0 6 -16 8 -35z m1141 -70
c4 -60 3 -69 -3 -35 -9 46 -13 127 -6 119 2 -2 6 -40 9 -84z m-716 -122 c-2
-32 -3 -6 -3 57 0 63 1 89 3 58 2 -32 2 -84 0 -115z m113 157 c0 -5 -4 -10
-10 -10 -5 0 -10 5 -10 10 0 6 5 10 10 10 6 0 10 -4 10 -10z m-528 -35 c3 -14
2 -25 -2 -25 -4 0 -10 11 -12 25 -3 14 -2 25 2 25 4 0 10 -11 12 -25z m528 0
c0 -8 -2 -15 -4 -15 -2 0 -6 7 -10 15 -3 8 -1 15 4 15 6 0 10 -7 10 -15z
m-563 -47 c-2 -13 -4 -5 -4 17 -1 22 1 32 4 23 2 -10 2 -28 0 -40z m48 -54 c4
-36 10 -78 15 -93 4 -16 4 -35 -1 -42 -6 -10 -9 -7 -10 11 0 14 -3 36 -5 50
-13 70 -20 140 -14 140 4 0 11 -29 15 -66z m512 4 c-3 -7 -5 -2 -5 12 0 14 2
19 5 13 2 -7 2 -19 0 -25z m-550 -40 c-3 -7 -5 -2 -5 12 0 14 2 19 5 13 2 -7
2 -19 0 -25z m550 -15 c-3 -10 -5 -4 -5 12 0 17 2 24 5 18 2 -7 2 -21 0 -30z
m620 0 c-3 -10 -5 -4 -5 12 0 17 2 24 5 18 2 -7 2 -21 0 -30z m-1130 -109 c10
-7 23 -14 30 -14 6 0 15 -5 18 -11 6 -8 -62 15 -72 25 -2 2 -6 28 -8 57 l-4
54 9 -48 c5 -27 17 -55 27 -63z m613 80 c14 -37 13 -43 -15 -56 -21 -9 -28 -8
-45 7 -25 23 -25 30 0 55 27 27 49 25 60 -6z m579 -6 c11 -30 -8 -62 -26 -46
-24 20 -16 59 15 67 1 1 6 -9 11 -21z m-1809 2 c0 -5 -5 -10 -11 -10 -5 0 -7
5 -4 10 3 6 8 10 11 10 2 0 4 -4 4 -10z m1027 -42 c-3 -7 -5 -2 -5 12 0 14 2
19 5 13 2 -7 2 -19 0 -25z m-1102 2 c3 -5 1 -10 -4 -10 -6 0 -11 5 -11 10 0 6
2 10 4 10 3 0 8 -4 11 -10z m1095 -40 c-33 -26 -49 -26 -19 0 13 10 29 19 34
19 6 1 -1 -8 -15 -19z m-305 -40 c8 -13 -5 -13 -25 0 -13 8 -13 10 2 10 9 0
20 -4 23 -10z m235 6 c0 -8 -81 -59 -86 -54 -2 3 14 17 38 31 46 28 48 29 48
23z m-60 -10 c0 -2 -7 -7 -16 -10 -8 -3 -12 -2 -9 4 6 10 25 14 25 6z m-130
-16 c8 -5 11 -10 5 -10 -5 0 -17 5 -25 10 -8 5 -10 10 -5 10 6 0 17 -5 25 -10z
m507 -82 c-2 -18 -4 -4 -4 32 0 36 2 50 4 33 2 -18 2 -48 0 -65z m0 -70 c-3
-7 -5 -2 -5 12 0 14 2 19 5 13 2 -7 2 -19 0 -25z m-130 -30 c-3 -8 -6 -5 -6 6
-1 11 2 17 5 13 3 -3 4 -12 1 -19z m130 -120 c-3 -7 -5 -2 -5 12 0 14 2 19 5
13 2 -7 2 -19 0 -25z m-1490 -44 c-3 -3 -12 -4 -19 -1 -8 3 -5 6 6 6 11 1 17
-2 13 -5z m2091 -68 c2 -16 -1 -33 -7 -39 -8 -8 -11 -4 -11 12 0 20 -2 21 -15
11 -13 -10 -15 -9 -15 12 0 29 9 40 30 36 8 -2 16 -16 18 -32z m-741 -98 c-2
-13 -4 -5 -4 17 -1 22 1 32 4 23 2 -10 2 -28 0 -40z m87 -31 c16 -43 -30 -77
-62 -45 -19 19 -14 45 10 62 28 20 41 16 52 -17z m33 -219 c-3 -7 -5 -2 -5 12
0 14 2 19 5 13 2 -7 2 -19 0 -25z m-10 -145 c-3 -10 -5 -4 -5 12 0 17 2 24 5
18 2 -7 2 -21 0 -30z m-121 -18 c1 -14 -2 -25 -7 -25 -5 0 -9 11 -9 25 0 33
15 33 16 0z m559 -344 c91 -19 -44 -71 -144 -55 -30 5 -56 14 -58 21 -10 31
117 52 202 34z m424 -135 c23 -60 41 -110 41 -111 0 -4 -63 -26 -65 -23 -1 2
-8 48 -14 103 -7 55 -14 114 -17 130 -11 56 14 13 55 -99z m-141 -11 c4 -32
-14 -48 -40 -34 -22 12 -23 33 -2 54 22 22 38 14 42 -20z m-837 -66 c-5 -13
-10 -19 -10 -12 -1 15 10 45 15 40 3 -2 0 -15 -5 -28z m556 -76 c-3 -10 -5 -4
-5 12 0 17 2 24 5 18 2 -7 2 -21 0 -30z m200 -5 c-3 -8 -6 -5 -6 6 -1 11 2 17
5 13 3 -3 4 -12 1 -19z m-492 -8 c-3 -5 -13 -10 -21 -10 -8 0 -12 5 -9 10 3 6
13 10 21 10 8 0 12 -4 9 -10z m1022 -652 c-3 -7 -5 -2 -5 12 0 14 2 19 5 13 2
-7 2 -19 0 -25z m-2189 -162 c13 -11 35 -26 50 -33 24 -11 21 -12 -33 -9 -48
3 -60 7 -59 20 1 9 -3 16 -8 16 -6 0 -4 8 3 17 12 15 12 16 -3 10 -12 -4 -15
-2 -11 9 6 16 12 12 61 -30z m1812 -3283 c0 -31 -3 -43 -9 -34 -5 8 -11 9 -15
3 -7 -12 -24 -11 -46 3 -13 7 -13 6 -2 -7 8 -10 9 -18 3 -22 -6 -4 -15 3 -21
14 -6 11 -21 20 -33 21 -14 0 -6 5 20 13 23 8 55 23 70 34 15 12 29 22 31 22
1 0 2 -21 2 -47z m-153 -29 c-3 -3 -12 -4 -19 -1 -8 3 -5 6 6 6 11 1 17 -2 13
-5z m-69 -17 c-17 -7 -28 -19 -29 -31 -1 -18 -2 -17 -8 4 -6 21 -3 26 18 31
40 10 49 8 19 -4z m-61 -3 c-3 -3 -12 -4 -19 -1 -8 3 -5 6 6 6 11 1 17 -2 13
-5z m430 -327 c3 -4 2 -7 -3 -8 -29 -2 -60 -11 -68 -19 -21 -21 -23 -9 -3 14
20 23 57 29 74 13z m-1804 -84 c-13 -2 -33 -2 -45 0 -13 2 -3 4 22 4 25 0 35
-2 23 -4z m-9 -163 c5 -17 4 -20 -2 -10 -5 8 -13 26 -16 40 -5 17 -4 20 2 10
5 -8 13 -26 16 -40z m76 0 c0 -5 -5 -10 -11 -10 -5 0 -7 5 -4 10 3 6 8 10 11
10 2 0 4 -4 4 -10z m70 -74 c0 -3 -4 -8 -10 -11 -5 -3 -10 -1 -10 4 0 6 5 11
10 11 6 0 10 -2 10 -4z"/>
<path d="M3357 8295 c-14 -10 -15 -14 -3 -18 8 -3 17 1 20 10 9 22 4 24 -17 8z"/>
<path d="M3758 7883 c6 -2 18 -2 25 0 6 3 1 5 -13 5 -14 0 -19 -2 -12 -5z"/>
<path d="M3848 7873 c23 -2 61 -2 85 0 23 2 4 4 -43 4 -47 0 -66 -2 -42 -4z"/>
<path d="M3620 7734 c0 -8 5 -12 10 -9 6 4 8 11 5 16 -9 14 -15 11 -15 -7z"/>
<path d="M2840 7600 c-9 -6 -10 -10 -3 -10 6 0 15 5 18 10 8 12 4 12 -15 0z"/>
<path d="M3060 7590 c0 -5 5 -10 10 -10 6 0 10 5 10 10 0 6 -4 10 -10 10 -5 0
-10 -4 -10 -10z"/>
<path d="M3100 7580 c-8 -5 -10 -10 -5 -10 6 0 17 5 25 10 8 5 11 10 5 10 -5
0 -17 -5 -25 -10z"/>
<path d="M3136 7571 c-3 -5 1 -11 9 -14 9 -4 12 -1 8 9 -6 16 -10 17 -17 5z"/>
<path d="M3431 7565 c1 -19 18 -51 18 -35 0 8 -4 22 -9 30 -5 8 -9 11 -9 5z"/>
<path d="M3465 7560 c-3 -5 3 -10 15 -10 12 0 18 5 15 10 -3 6 -10 10 -15 10
-5 0 -12 -4 -15 -10z"/>
<path d="M3280 7531 c0 -6 -7 -8 -15 -5 -10 4 -15 0 -15 -12 0 -16 2 -17 10
-4 8 13 10 13 10 -1 0 -13 10 -16 45 -15 24 1 48 6 52 10 5 4 4 7 -2 6 -23 -5
-46 1 -40 10 3 6 1 10 -5 10 -7 0 -10 -7 -6 -17 4 -13 0 -11 -14 6 -11 13 -20
18 -20 12z"/>
<path d="M3398 7503 c12 -2 32 -2 45 0 12 2 2 4 -23 4 -25 0 -35 -2 -22 -4z"/>
<path d="M3450 7480 c0 -5 5 -10 11 -10 5 0 7 5 4 10 -3 6 -8 10 -11 10 -2 0
-4 -4 -4 -10z"/>
<path d="M3218 7473 c6 -2 18 -2 25 0 6 3 1 5 -13 5 -14 0 -19 -2 -12 -5z"/>
<path d="M3361 7462 c-1 -20 3 -22 39 -20 49 4 53 18 6 18 -19 0 -37 6 -39 13
-3 6 -6 2 -6 -11z"/>
<path d="M3553 7466 c-7 -8 -28 -12 -57 -11 -25 2 -46 -1 -46 -6 0 -5 17 -9
38 -8 49 1 135 16 102 18 -20 1 -22 3 -10 11 13 9 13 10 0 9 -8 0 -20 -6 -27
-13z"/>
<path d="M2746 7454 c-5 -14 -4 -15 9 -4 17 14 19 20 6 20 -5 0 -12 -7 -15
-16z"/>
<path d="M3267 7464 c-4 -5 -49 -7 -100 -5 -51 1 -89 0 -85 -4 4 -4 62 -9 130
-11 90 -3 118 -1 105 6 -9 6 -21 9 -26 5 -5 -3 -11 0 -13 6 -2 5 -7 7 -11 3z"/>
<path d="M2636 7283 c-6 -14 -5 -15 5 -6 7 7 10 15 7 18 -3 3 -9 -2 -12 -12z"/>
<path d="M2610 7250 c0 -5 5 -10 10 -10 6 0 10 5 10 10 0 6 -4 10 -10 10 -5 0
-10 -4 -10 -10z"/>
<path d="M2600 7193 c8 -3 18 -11 22 -17 4 -6 10 -7 15 -3 9 10 -16 27 -37 26
-13 -1 -13 -1 0 -6z"/>
<path d="M2580 7170 c0 -5 5 -10 11 -10 5 0 7 5 4 10 -3 6 -8 10 -11 10 -2 0
-4 -4 -4 -10z"/>
<path d="M2508 7003 c7 -3 16 -2 19 1 4 3 -2 6 -13 5 -11 0 -14 -3 -6 -6z"/>
<path d="M2450 6976 c0 -2 9 -6 20 -9 11 -3 18 -1 14 4 -5 9 -34 13 -34 5z"/>
<path d="M2510 6976 c0 -2 7 -6 15 -10 8 -3 15 -1 15 4 0 6 -7 10 -15 10 -8 0
-15 -2 -15 -4z"/>
<path d="M2430 6920 c0 -5 7 -10 16 -10 8 0 12 5 9 10 -3 6 -10 10 -16 10 -5
0 -9 -4 -9 -10z"/>
<path d="M2730 6279 c0 -5 -4 -8 -9 -4 -17 10 -32 -33 -25 -70 3 -19 9 -37 13
-40 14 -8 -5 -114 -24 -136 -20 -21 -22 -22 -247 -15 -143 5 -228 4 -228 -2 0
-15 18 -19 90 -21 118 -3 267 -40 296 -72 20 -22 20 -43 5 -294 -4 -77 -8
-151 -9 -165 0 -32 -8 -162 -18 -272 l-7 -88 -91 0 c-56 0 -97 5 -103 11 -9 9
-20 9 -40 1 -15 -6 -51 -16 -80 -22 -29 -7 -57 -18 -63 -25 -8 -10 -10 -45 -5
-114 7 -99 8 -100 36 -110 16 -5 29 -15 29 -20 0 -28 114 -7 209 37 31 14 77
27 102 30 70 7 104 -29 189 -200 61 -122 129 -233 105 -173 -4 11 -9 29 -12
40 -3 11 -7 27 -10 35 -3 8 -7 26 -9 40 -1 14 -7 48 -13 75 -12 59 -26 183
-22 205 2 8 9 29 17 45 35 75 34 147 -3 187 -11 12 -12 18 -4 18 7 0 10 4 7 9
-3 4 -1 23 5 42 5 19 14 52 19 74 66 287 119 452 155 489 13 12 7 15 -44 21
-32 4 -91 6 -132 5 -41 -1 -93 1 -116 5 l-43 8 0 51 c0 58 7 72 35 77 37 7 67
91 76 214 5 60 13 111 19 113 22 8 8 22 -20 22 -16 0 -30 -5 -30 -11z m-293
-1326 c-3 -10 -5 -2 -5 17 0 19 2 27 5 18 2 -10 2 -26 0 -35z"/>
<path d="M4840 4642 c0 -21 -103 -102 -130 -102 -5 0 -10 -5 -10 -11 0 -6 -9
-8 -21 -4 -17 6 -20 3 -17 -12 7 -33 95 -13 171 39 20 15 27 28 27 53 0 19 -4
37 -10 40 -5 3 -10 2 -10 -3z"/>
<path d="M4834 4518 c-11 -13 -46 -35 -78 -48 -58 -23 -68 -42 -35 -63 12 -7
29 -4 63 13 54 26 79 57 74 95 l-3 27 -21 -24z"/>
<path d="M1726 4377 c-17 -13 -17 -14 -1 -30 13 -13 38 -17 113 -19 163 -4
257 5 246 23 -3 5 25 8 63 7 64 -1 66 -1 23 -8 -25 -4 -36 -8 -25 -9 11 0 32
-8 47 -15 31 -16 40 -10 32 21 -5 18 -16 21 -114 27 -59 3 -168 4 -241 2 -81
-3 -118 -2 -94 3 l40 8 -36 2 c-19 0 -43 -5 -53 -12z m257 -14 c-13 -2 -35 -2
-50 0 -16 2 -5 4 22 4 28 0 40 -2 28 -4z"/>
<path d="M5065 4350 c-3 -5 -1 -10 4 -10 6 0 11 5 11 10 0 6 -2 10 -4 10 -3 0
-8 -4 -11 -10z"/>
<path d="M5011 4285 c-43 -46 -55 -53 -64 -35 -3 6 -4 5 -3 -2 4 -19 19 -19
53 2 26 15 74 80 60 80 -2 0 -23 -20 -46 -45z"/>
<path d="M4878 588 c-12 -10 -14 -19 -7 -37 8 -19 14 -22 37 -16 43 10 50 24
23 46 -27 22 -32 23 -53 7z"/>
<path d="M3200 505 c-80 -20 -160 -48 -160 -57 0 -4 12 -3 28 3 15 6 57 11 93
11 37 -1 90 5 118 13 29 7 68 11 87 8 22 -4 34 -2 34 6 0 6 -3 10 -7 9 -5 -1
-26 4 -48 10 -49 15 -75 14 -145 -3z"/>
<path d="M4985 506 c-20 -14 -20 -15 5 -24 26 -10 57 -5 66 10 14 22 -45 34
-71 14z"/>
<path d="M3370 460 c-18 -12 -2 -12 25 0 13 6 15 9 5 9 -8 0 -22 -4 -30 -9z"/>
<path d="M5089 451 c-13 -11 -19 -20 -14 -20 14 0 50 28 43 34 -3 3 -16 -3
-29 -14z"/>
<path d="M2972 305 c0 -16 2 -22 5 -12 2 9 2 23 0 30 -3 6 -5 -1 -5 -18z"/>
<path d="M2761 293 c-2 -34 20 -176 29 -192 4 -8 6 7 3 35 -8 69 -31 184 -32
157z"/>
<path d="M2991 264 c0 -11 3 -14 6 -6 3 7 2 16 -1 19 -3 4 -6 -2 -5 -13z"/>
<path d="M3964 162 c9 -15 97 -46 186 -66 86 -18 505 -87 565 -92 74 -6 -116
35 -305 66 -270 45 -359 65 -434 95 -13 6 -17 5 -12 -3z"/>
<path d="M3045 109 c-4 -6 -5 -12 -2 -15 2 -3 7 2 10 11 7 17 1 20 -8 4z"/>
<path d="M5520 28 l-44 -28 37 0 c26 0 39 6 47 21 19 35 7 37 -40 7z"/>
</g>
</svg>
